# xmcd
#
# Track frame offsets:
#	150
#	3700
#	16688
#	22395
#	35046
#	41313
#	54054
#	57245
#	69878
#	78841
#	91511
#	95814
#
# Disc length: 1468 seconds
#
# Revision: 1
# Processed by: cddbd v1.5.2PL0 Copyright (c) Steve Scherf et al.
# Submitted via: audiograbber 1.83.01
#
DISCID=8605ba0c
DTITLE=Paul Thorn - Live from Tupelo at the Lyric Theater
DYEAR=2007
DGENRE=
TTITLE0=Intro 1
TTITLE1=Ain't Livin' In Sin No More
TTITLE2=Intro 2
TTITLE3=Almost What You Need
TTITLE4=Intro 3
TTITLE5=Fabio and Liberace
TTITLE6=Intro 4
TTITLE7=Lucky Man
TTITLE8=Intro 5
TTITLE9=I Have A Good Day
TTITLE10=Intro 6
TTITLE11=I'm Happy and Free
EXTD=
EXTT0=
EXTT1=
EXTT2=
EXTT3=
EXTT4=
EXTT5=
EXTT6=
EXTT7=
EXTT8=
EXTT9=
EXTT10=
EXTT11=
PLAYORDER=
